<svg width="202" height="60" viewBox="0 0 202 60" fill="none" xmlns="http://www.w3.org/2000/svg">
<g clip-path="url(#clip0)">
<path d="M59.8824 24.6232C58.1585 20.526 55.3821 16.9486 51.8299 14.2474C48.2778 11.5461 44.0739 9.81541 39.6373 9.22772C35.2007 8.64004 30.6863 9.21589 26.544 10.8979C22.4017 12.5799 18.7761 15.3093 16.0286 18.8141C13.2811 22.3189 11.5076 26.4768 10.8849 30.8732C10.2622 35.2697 10.8119 39.7513 12.4794 43.8713C14.1469 47.9914 16.8739 51.606 20.3886 54.3551C23.9033 57.1041 28.083 58.8915 32.5111 59.5391C31.931 57.466 31.341 55.1746 30.821 52.7444C32.3338 53.7178 33.9261 54.5638 35.5812 55.2738V55.2738C35.5812 55.2738 35.7012 57.4164 35.8612 59.8069C37.6496 59.8375 39.4362 59.6812 41.1915 59.3407C41.1462 59.0914 41.1462 58.8361 41.1915 58.5869C41.4815 56.7319 42.2816 53.3891 42.4416 51.2366C43.5949 50.1666 44.5733 48.9251 45.3417 47.5566V47.5566L45.2817 47.993C44.7317 52.2187 43.5816 56.7319 42.8816 57.9818C42.655 58.3955 42.376 58.7788 42.0516 59.1225C45.6715 58.2802 49.0635 56.667 51.9923 54.3949C54.9211 52.1228 57.3167 49.246 59.013 45.9641C60.7092 42.6822 61.6656 39.0736 61.8157 35.3886C61.9658 31.7035 61.3062 28.0301 59.8824 24.6232V24.6232ZM58.4124 28.3826C57.9723 28.8091 57.0623 29.0968 56.9123 27.8073C56.7623 26.5177 56.7223 25.6151 56.7223 25.6151C56.7223 25.6151 54.7922 22.2128 54.0721 22.1731C53.3521 22.1334 48.2419 25.6151 46.8918 27.1327C45.7217 28.4123 45.4917 28.3231 45.4917 30.5747C45.4917 32.2709 45.7117 38.6788 45.5917 43.5789L37.4413 45.7314C34.8795 46.4607 32.2743 47.0305 29.6409 47.4376L28.6409 41.6546H28.5009L25.9308 28.5909C25.9308 28.5909 22.1206 27.1625 20.7205 26.7756C20.0631 26.4904 19.3372 26.3976 18.6283 26.5084C17.9195 26.6191 17.2575 26.9287 16.7203 27.4006C16.1723 27.8765 15.7341 28.464 15.4355 29.123C15.137 29.782 14.9851 30.497 14.9902 31.2195C15.2016 31.6805 15.3625 32.1627 15.4702 32.6578C15.5202 33.1339 14.2702 33.0843 13.4701 33.0843C12.6701 33.0843 12.5501 31.6559 13.1801 29.9796C13.6716 28.6906 14.2809 27.4488 15.0002 26.2698C15.5413 25.2166 16.2391 24.2502 17.0703 23.4031C17.0703 23.4031 17.2103 23.0658 18.3204 23.165C19.4304 23.2642 25.6007 23.5916 25.6007 23.5916L25.6507 21.3399C32.3574 20.4214 39.1215 19.9772 45.8917 20.0107C45.8917 20.6158 45.8917 21.2208 45.8917 21.8259C48.4561 20.6652 51.2174 19.9922 54.0321 19.8421C54.1827 19.8383 54.3319 19.8717 54.4663 19.9392C54.6007 20.0067 54.7161 20.1062 54.8022 20.2289C55.1422 20.6554 57.2123 23.2047 57.4523 23.5717C58.1246 24.5247 58.7358 25.5185 59.2824 26.5475C59.095 27.199 58.8011 27.8156 58.4124 28.3727V28.3826Z" fill="#FDC305"/>
<path d="M56.4628 22.312C56.9328 22.9071 57.3428 23.4328 57.4628 23.5916C58.1351 24.5445 58.7463 25.5384 59.2929 26.5673C59.1027 27.1975 58.8123 27.7935 58.4329 28.333C57.9929 28.7595 57.0828 29.0472 56.9328 27.7577C56.7828 26.4682 56.7228 25.6151 56.7228 25.6151C56.7228 25.6151 54.7927 22.2128 54.0727 22.1731C53.3526 22.1334 48.2424 25.6151 46.8923 27.1327C45.7223 28.4123 45.4922 28.3231 45.4922 30.5747C45.4922 32.0626 45.6623 37.1711 45.6223 41.7141C47.4323 41.9125 50.0925 42.4085 50.8925 43.5789C50.8925 43.5789 50.6025 36.4569 58.7029 40.1865C58.7029 40.1865 58.9829 30.4755 70.1635 32.9653C66.3627 28.5392 61.7035 24.9162 56.4628 22.312V22.312Z" fill="#F06351"/>
<path d="M45.9323 20.0107C45.9729 14.5142 45.5043 9.02555 44.5322 3.61409C44.5322 3.61409 44.3822 2.32458 43.6622 3.37603C43.068 4.63302 42.6636 5.96993 42.4621 7.34375C38.1871 7.07167 33.896 7.18456 29.6415 7.681C28.8214 4.9532 27.4214 3.71328 26.7513 4.04062C26.0813 4.36796 26.0013 7.29415 26.0013 7.29415L25.6713 21.3399C32.3846 20.4204 39.1554 19.9762 45.9323 20.0107V20.0107Z" fill="#F06351"/>
<path d="M45.3515 47.5566C45.4815 46.4952 45.5515 45.0867 45.5915 43.5293L37.4415 45.6818C34.8809 46.4278 32.2758 47.0142 29.6415 47.4375L30.7515 52.3972C30.7515 52.5063 30.7515 52.6154 30.8215 52.7245C32.3342 53.6979 33.9265 54.544 35.5815 55.254C38.0002 54.1071 40.3038 52.7354 42.4615 51.1573V51.2168C43.6096 50.1521 44.5845 48.9173 45.3515 47.5566V47.5566Z" fill="#E55645"/>
<path d="M32.0016 16.9059C31.9516 16.8067 33.0016 17.5804 33.4116 17.8185C33.8216 18.0566 34.0216 18.2351 34.0216 18.4037C34.0216 18.5724 33.7616 18.741 33.4016 18.741C33.0416 18.741 32.4816 18.622 32.4016 18.4831C32.3216 18.3442 33.0016 18.4831 33.3416 18.4831H33.6316C33.0159 18.0363 32.4672 17.5053 32.0016 16.9059Z" fill="black"/>
<path d="M39.5019 17.015C39.5019 17.015 38.5019 18.2847 38.4119 18.3442C38.3219 18.4037 38.2419 18.6815 38.6019 18.6319C39.0152 18.5707 39.4231 18.4778 39.8219 18.3542C39.9319 18.2946 39.8919 18.1558 39.7019 18.1756C39.5119 18.1954 39.0219 18.2252 38.7019 18.2847L39.5519 17.025C39.5519 17.025 39.5819 16.9059 39.5019 17.015Z" fill="black"/>
<path d="M36.3617 23.0758C36.8253 22.8732 37.2084 22.5245 37.4517 22.0838C37.7317 21.4291 37.4517 21.1812 37.0117 21.0919C36.4064 20.9823 35.7817 21.1027 35.2617 21.4291C34.8717 21.7962 34.9217 22.1533 35.2617 22.4211C35.5995 22.6838 35.9691 22.9038 36.3617 23.0758V23.0758Z" fill="black"/>
<path d="M36.0016 24.3256C35.8868 24.5505 35.7308 24.7524 35.5416 24.9207C35.2568 25.148 34.9067 25.28 34.5416 25.2977C33.991 25.3513 33.4405 25.1953 33.0016 24.8612C32.8 24.7443 32.6206 24.5932 32.4716 24.4149C32.3715 24.3068 32.2486 24.2221 32.1116 24.1669C32.1116 24.1669 32.8616 28.2437 34.6816 28.8984C36.5016 29.553 36.8416 28.1445 36.8916 27.7676C36.9525 26.6387 36.6666 25.518 36.0716 24.5537C36.0716 24.2561 36.0516 24.4545 36.0016 24.3256Z" fill="#F06351"/>
<path d="M34.3016 25.4564C33.8336 25.3897 33.3841 25.2296 32.9802 24.9858C32.5763 24.742 32.2264 24.4195 31.9516 24.0379C31.927 24.0106 31.9134 23.9753 31.9134 23.9387C31.9134 23.9021 31.927 23.8668 31.9516 23.8395C31.9646 23.8263 31.9802 23.8159 31.9974 23.8087C32.0145 23.8015 32.033 23.7979 32.0516 23.7979C32.0702 23.7979 32.0887 23.8015 32.1058 23.8087C32.123 23.8159 32.1386 23.8263 32.1516 23.8395C32.3991 24.1839 32.713 24.4761 33.0752 24.6992C33.4374 24.9222 33.8407 25.0717 34.2616 25.139C34.5946 25.1141 34.9169 25.0113 35.202 24.8388C35.4871 24.6664 35.7269 24.4293 35.9016 24.147L36.0416 23.9586L36.1416 24.1768C36.1416 24.1768 36.5216 24.9307 37.1416 24.9703C37.7616 25.01 38.2016 24.5537 38.7716 23.6907C38.7928 23.6592 38.8258 23.6373 38.8633 23.6298C38.9008 23.6224 38.9398 23.63 38.9716 23.6511C39.0034 23.6721 39.0255 23.7048 39.033 23.742C39.0405 23.7793 39.0328 23.8179 39.0116 23.8495C38.3449 24.8215 37.7149 25.2878 37.1216 25.2481C36.8923 25.2179 36.6726 25.1373 36.4788 25.012C36.285 24.8867 36.122 24.7199 36.0016 24.524C35.8059 24.795 35.5518 25.0193 35.2577 25.1806C34.9637 25.3419 34.637 25.4361 34.3016 25.4564Z" fill="black"/>
<path d="M36.2616 38.8078C38.3327 38.8078 40.0116 37.1424 40.0116 35.088C40.0116 33.0337 38.3327 31.3683 36.2616 31.3683C34.1905 31.3683 32.5116 33.0337 32.5116 35.088C32.5116 37.1424 34.1905 38.8078 36.2616 38.8078Z" fill="#FDC305"/>
<path d="M41.2316 32.0626L38.1016 33.3621L39.2516 27.7775L31.7516 37.4587L34.8816 36.1593L33.7316 41.7538L41.2316 32.0626ZM33.8416 35.8617L38.0016 30.4954L37.1916 34.4631L39.1916 33.6497L35.0016 39.026L35.8116 35.0583L33.8416 35.8617Z" fill="#111111"/>
<path d="M32.4415 34.4036C33.0601 34.4036 33.5615 33.9062 33.5615 33.2926C33.5615 32.6791 33.0601 32.1817 32.4415 32.1817C31.823 32.1817 31.3215 32.6791 31.3215 33.2926C31.3215 33.9062 31.823 34.4036 32.4415 34.4036Z" fill="#111111"/>
<path d="M38.9619 38.4308C39.3982 38.4308 39.7519 38.08 39.7519 37.6472C39.7519 37.2144 39.3982 36.8636 38.9619 36.8636C38.5256 36.8636 38.1719 37.2144 38.1719 37.6472C38.1719 38.08 38.5256 38.4308 38.9619 38.4308Z" fill="#111111"/>
<path d="M39.922 36.2783C40.1153 36.2783 40.272 36.1229 40.272 35.9312C40.272 35.7394 40.1153 35.584 39.922 35.584C39.7287 35.584 39.572 35.7394 39.572 35.9312C39.572 36.1229 39.7287 36.2783 39.922 36.2783Z" fill="#111111"/>
<path d="M45.8823 21.8061C44.077 23.4202 42.3769 25.1463 40.792 26.974C39.2134 28.7886 37.4318 30.4192 35.4818 31.8345C35.2618 31.3088 33.8517 30.3268 33.8517 30.3268C33.8517 30.3268 30.7115 28.1941 28.6514 26.5177C27.5378 25.5977 26.4886 24.6035 25.5113 23.542L23.5112 23.4328C26.3984 27.616 30.6281 30.7066 35.5118 32.2015C36.3718 32.0626 38.7919 30.3466 40.602 28.948C42.7435 27.1416 44.749 25.1822 46.6023 23.0857C47.1005 22.4984 47.4868 21.8262 47.7424 21.1018C46.6023 21.4787 45.8823 21.8061 45.8823 21.8061Z" fill="#F06351"/>
<path d="M65.2227 4.28859L56.7627 13.6524L55.5427 11.6785L63.6927 0.816833L65.2227 4.28859Z" fill="#FDC305"/>
<path d="M62.6531 17.9375L68.1931 13.8607L67.4131 10.1509L62.0131 14.9221L62.6531 17.9375Z" fill="#FDC305"/>
<path d="M59.923 49.7884L66.053 52.9428L69.063 50.6216L62.373 47.8938L59.923 49.7884Z" fill="#FDC305"/>
<path d="M1.95001 6.73865L5.02001 3.40576L14.31 12.3331L13.09 14.5947L1.95001 6.73865Z" fill="#FDC305"/>
<path d="M7.38003 16.9655L2.68003 13.8607L0.280029 17.6995L5.43003 20.0801L7.38003 16.9655Z" fill="#FDC305"/>
<path d="M13.91 52.9428L9.35999 56.2657L12.16 59.8168L16.18 55.8293L13.91 52.9428Z" fill="#FDC305"/>
<path d="M25.9313 28.5909C25.9313 28.5909 22.1211 27.1625 20.721 26.7756C20.0636 26.4904 19.3377 26.3976 18.6289 26.5084C17.9201 26.6191 17.258 26.9287 16.7208 27.4006C16.1728 27.8765 15.7346 28.464 15.4361 29.123C15.1375 29.782 14.9856 30.497 14.9907 31.2195C15.2021 31.6805 15.3631 32.1627 15.4708 32.6578C15.5208 33.1339 14.2707 33.0843 13.4707 33.0843C12.6706 33.0843 12.5506 31.6559 13.1807 29.9796C13.6722 28.6906 14.2814 27.4488 15.0007 26.2698C9.55047 29.0868 0 35.5939 0 35.5939C2.73182 35.4305 5.47292 35.5102 8.1904 35.832C13.4407 36.3577 13.1907 40.4643 13.1907 40.4643C15.0373 39.9593 16.9192 39.5913 18.8209 39.3632C20.941 39.2244 21.091 41.4661 21.091 41.4661L21.6211 45.295C22.4259 44.4313 23.3134 43.6473 24.2712 42.954C25.5057 41.9738 27.0776 41.5111 28.6514 41.6645V41.6645L25.9313 28.5909Z" fill="#F06351"/>
<path d="M85.6642 42.4779C84.634 40.9637 84.1414 39.1524 84.2642 37.3298V29.8903C84.1342 28.0542 84.6193 26.227 85.6441 24.6926C86.5708 23.5089 88.1541 22.9203 90.3941 22.927C92.6341 22.9336 94.1508 23.4527 94.9441 24.4843C95.9115 25.7627 96.3835 27.3433 96.2741 28.938V30.6838H92.1341V28.7893C92.1286 28.2908 92.0851 27.7934 92.0041 27.3014C91.9541 26.9452 91.7892 26.6146 91.5341 26.359C91.3767 26.2251 91.1939 26.1236 90.9964 26.0606C90.799 25.9976 90.5908 25.9743 90.3841 25.992C90.0874 25.9481 89.7841 25.9959 89.5157 26.129C89.2473 26.2622 89.0268 26.4741 88.8841 26.736C88.6212 27.4326 88.5055 28.1754 88.5441 28.9182V38.3614C88.4985 39.1091 88.6322 39.857 88.9341 40.5436C89.0784 40.7913 89.2925 40.9918 89.5501 41.1205C89.8077 41.2491 90.0976 41.3003 90.3841 41.2677C90.6657 41.3072 90.9526 41.2575 91.204 41.1257C91.4554 40.9939 91.6585 40.7867 91.7841 40.5337C92.026 39.8358 92.1313 39.0985 92.0941 38.3614V36.3775H96.2341V38.0936C96.356 39.7118 95.9225 41.3234 95.0041 42.6664C94.1241 43.7575 92.6041 44.2931 90.4441 44.2931C88.2842 44.2931 86.5942 43.698 85.6642 42.4779Z" fill="#111111"/>
<path d="M101.915 23.2146H106.655L110.655 44.0451H106.715L106.005 39.4426H102.685L101.885 44.0154H97.8848L101.915 23.2146ZM105.565 36.8239L104.305 28.452L103.055 36.8239H105.565Z" fill="#111111"/>
<path d="M113.725 26.3491H110.485V23.2146H121.205V26.3491H118.005V44.0154H113.715L113.725 26.3491Z" fill="#111111"/>
<path d="M129.616 23.2146H137.746V25.377H132.546V32.2511H136.766V34.3044H132.546V41.9323H137.796V44.0154H129.616V23.2146Z" fill="#444444"/>
<path d="M140.157 23.2146H142.157L148.157 37.0322V23.2146H150.597V44.0451H148.727L142.727 29.8407V44.0154H140.247L140.157 23.2146Z" fill="#444444"/>
<path d="M153.828 23.2146H161.948V25.377H156.748V32.2511H161.008V34.3044H156.788V41.9323H162.008V44.0154H153.828V23.2146Z" fill="#444444"/>
<path d="M164.358 23.2146H168.578C170.241 23.0819 171.897 23.5427 173.248 24.514C174.248 25.377 174.738 26.7856 174.738 28.7397C174.738 31.3848 173.875 33.0017 172.148 33.5902L175.148 44.0154H172.308L169.558 34.2548H167.288V44.0154H164.358V23.2146ZM168.358 32.142C169.322 32.2344 170.285 31.9655 171.058 31.3881C171.372 31.0192 171.607 30.5904 171.748 30.1281C171.889 29.6658 171.933 29.1798 171.878 28.7C171.898 28.027 171.8 27.3557 171.588 26.7161C171.502 26.4803 171.369 26.264 171.198 26.08C171.026 25.8959 170.819 25.748 170.588 25.6448C169.939 25.3807 169.239 25.2621 168.538 25.2977H167.248V32.1817L168.358 32.142Z" fill="#444444"/>
<path d="M178.679 42.4779C177.723 40.8775 177.28 39.0268 177.409 37.1711V30.2276C177.374 28.8876 177.543 27.5501 177.909 26.2598C178.198 25.2898 178.811 24.4465 179.649 23.8693C180.66 23.265 181.83 22.9747 183.009 23.0361C183.771 22.9641 184.54 23.0583 185.262 23.3118C185.984 23.5654 186.642 23.9723 187.189 24.5041C188.148 25.8373 188.602 27.464 188.469 29.0968V29.8705H185.719V29.2257C185.738 28.4546 185.677 27.6835 185.539 26.9244C185.448 26.438 185.177 26.0028 184.779 25.7044C184.26 25.4005 183.66 25.2588 183.059 25.2977C182.406 25.2422 181.756 25.4415 181.249 25.8532C180.834 26.2435 180.563 26.7603 180.479 27.3212C180.352 28.1383 180.295 28.9645 180.309 29.7911V37.5182C180.229 38.6924 180.432 39.8686 180.899 40.9503C181.17 41.283 181.515 41.5497 181.906 41.7301C182.297 41.9105 182.725 41.9998 183.156 41.9912C183.587 41.9826 184.011 41.8763 184.394 41.6804C184.778 41.4845 185.111 41.2043 185.369 40.8611C185.851 39.717 186.059 38.4779 185.979 37.2405V35.7725H183.319V33.7192H188.619V44.0154H186.809L186.519 41.6248C186.29 42.419 185.796 43.113 185.119 43.5938C184.442 44.0747 183.621 44.3141 182.789 44.2733C182.007 44.3417 181.22 44.213 180.501 43.8991C179.783 43.5852 179.156 43.0964 178.679 42.4779V42.4779Z" fill="#444444"/>
<path d="M194.699 36.6751L190.169 23.2146H192.889L196.099 33.2529L199.259 23.2146H202.009L197.509 36.6751V44.0154H194.709L194.699 36.6751Z" fill="#444444"/>
</g>
<defs>
<clipPath id="clip0">
<rect width="202" height="59" fill="white" transform="translate(0 0.816833)"/>
</clipPath>
</defs>
</svg>
