<svg width="175" height="51" viewBox="0 0 175 51" fill="none" xmlns="http://www.w3.org/2000/svg">
<path d="M52.4181 19.8299C50.9331 16.2409 48.5415 13.1071 45.4817 10.7409C42.422 8.37463 38.8008 6.85856 34.9792 6.34375C31.1576 5.82895 27.2689 6.33339 23.7008 7.8068C20.1327 9.28021 17.0097 11.6711 14.643 14.7413C12.2763 17.8115 10.7487 21.4537 10.2123 25.3049C9.67586 29.1562 10.1494 33.082 11.5858 36.6911C13.0222 40.3002 15.3711 43.4666 18.3986 45.8747C21.4262 48.2828 25.0265 49.8485 28.8408 50.4158C28.3411 48.5998 27.8329 46.5926 27.385 44.4637C28.6881 45.3164 30.0597 46.0576 31.4854 46.6795V46.6795C31.4854 46.6795 31.5887 48.5563 31.7266 50.6504C33.267 50.6772 34.806 50.5403 36.318 50.242C36.2789 50.0237 36.2789 49.8 36.318 49.5817C36.5678 47.9568 37.2569 45.0285 37.3948 43.143C38.3882 42.2057 39.231 41.1181 39.8929 39.9193V39.9193L39.8412 40.3016C39.3674 44.0032 38.3768 47.9568 37.7738 49.0516C37.5786 49.414 37.3383 49.7498 37.0588 50.0509C40.177 49.313 43.0988 47.8999 45.6216 45.9096C48.1445 43.9192 50.208 41.3992 51.6691 38.5243C53.1303 35.6494 53.954 32.4883 54.0834 29.2603C54.2127 26.0322 53.6445 22.8144 52.4181 19.8299V19.8299ZM51.1518 23.1231C50.7728 23.4968 49.9889 23.7488 49.8596 22.6192C49.7304 21.4896 49.696 20.6989 49.696 20.6989C49.696 20.6989 48.0334 17.7185 47.4132 17.6837C46.7929 17.649 42.391 20.6989 41.2281 22.0283C40.2202 23.1492 40.0221 23.071 40.0221 25.0434C40.0221 26.5293 40.2116 32.1425 40.1083 36.4349L33.0876 38.3205C30.8809 38.9593 28.6369 39.4585 26.3685 39.815L25.507 34.7492H25.3864L23.1726 23.3056C23.1726 23.3056 19.8905 22.0544 18.6845 21.7155C18.1183 21.4656 17.4929 21.3844 16.8824 21.4814C16.2718 21.5784 15.7015 21.8495 15.2388 22.2629C14.7668 22.6798 14.3893 23.1944 14.1321 23.7717C13.875 24.349 13.7441 24.9754 13.7485 25.6082C13.9306 26.0121 14.0693 26.4345 14.162 26.8682C14.2051 27.2852 13.1283 27.2418 12.4392 27.2418C11.75 27.2418 11.6467 25.9906 12.1894 24.5221C12.6127 23.3929 13.1375 22.3052 13.7572 21.2723C14.2232 20.3497 14.8243 19.5032 15.5403 18.7612C15.5403 18.7612 15.6609 18.4657 16.6171 18.5526C17.5733 18.6395 22.8883 18.9263 22.8883 18.9263L22.9314 16.9538C28.7084 16.1492 34.5349 15.7601 40.3667 15.7895C40.3667 16.3195 40.3667 16.8496 40.3667 17.3796C42.5756 16.3628 44.9542 15.7733 47.3787 15.6418C47.5085 15.6385 47.637 15.6677 47.7527 15.7268C47.8685 15.786 47.9679 15.8732 48.042 15.9806C48.3349 16.3543 50.1181 18.5874 50.3248 18.9089C50.9039 19.7437 51.4304 20.6143 51.9012 21.5156C51.7398 22.0864 51.4867 22.6265 51.1518 23.1144V23.1231Z" fill="#FDC305"/>
<path d="M49.4725 17.8054C49.8773 18.3267 50.2305 18.7873 50.3339 18.9263C50.9129 19.7611 51.4395 20.6317 51.9103 21.533C51.7464 22.085 51.4963 22.6071 51.1695 23.0797C50.7904 23.4533 50.0065 23.7053 49.8773 22.5757C49.7481 21.4461 49.6964 20.6989 49.6964 20.6989C49.6964 20.6989 48.0339 17.7185 47.4136 17.6837C46.7934 17.649 42.3915 20.6989 41.2286 22.0283C40.2207 23.1492 40.0226 23.071 40.0226 25.0435C40.0226 26.3468 40.169 30.8218 40.1346 34.8014C41.6938 34.9752 43.9852 35.4096 44.6743 36.435C44.6743 36.435 44.4245 30.1961 51.4021 33.4633C51.4021 33.4633 51.6433 24.9566 61.274 27.1375C58.0001 23.2603 53.9867 20.0867 49.4725 17.8054V17.8054Z" fill="#F06351"/>
<path d="M40.4016 15.7895C40.4367 10.9746 40.033 6.16666 39.1956 1.4263C39.1956 1.4263 39.0664 0.296711 38.4462 1.21776C37.9344 2.31887 37.5861 3.48998 37.4125 4.69343C33.73 4.4551 30.0337 4.55398 26.3689 4.98886C25.6626 2.59934 24.4566 1.51319 23.8794 1.79994C23.3023 2.08668 23.2333 4.64998 23.2333 4.64998L22.9491 16.9538C28.7318 16.1484 34.5641 15.7593 40.4016 15.7895V15.7895Z" fill="#F06351"/>
<path d="M39.9013 39.9193C40.0133 38.9896 40.0736 37.7557 40.108 36.3915L33.0877 38.2771C30.8821 38.9305 28.6381 39.4442 26.3689 39.815L27.3251 44.1596C27.3251 44.2552 27.3251 44.3508 27.3854 44.4464C28.6884 45.299 30.0599 46.0402 31.4856 46.6621C33.569 45.6575 35.5533 44.4559 37.4119 43.0735V43.1256C38.4008 42.1929 39.2406 41.1113 39.9013 39.9193V39.9193Z" fill="#E55645"/>
<path d="M28.4019 13.0698C28.3588 12.9829 29.2633 13.6606 29.6165 13.8692C29.9696 14.0777 30.1419 14.2341 30.1419 14.3818C30.1419 14.5296 29.9179 14.6773 29.6078 14.6773C29.2978 14.6773 28.8154 14.573 28.7465 14.4514C28.6776 14.3297 29.2633 14.4514 29.5562 14.4514H29.806C29.2756 14.06 28.8029 13.5949 28.4019 13.0698Z" fill="black"/>
<path d="M34.8626 13.1654C34.8626 13.1654 34.0012 14.2776 33.9236 14.3297C33.8461 14.3819 33.7772 14.6251 34.0873 14.5817C34.4433 14.5281 34.7947 14.4468 35.1382 14.3384C35.2329 14.2863 35.1985 14.1646 35.0348 14.182C34.8712 14.1994 34.4491 14.2254 34.1734 14.2776L34.9056 13.1741C34.9056 13.1741 34.9315 13.0698 34.8626 13.1654Z" fill="black"/>
<path d="M32.1577 18.4744C32.557 18.297 32.887 17.9916 33.0966 17.6055C33.3378 17.032 33.0966 16.8148 32.7176 16.7366C32.1961 16.6406 31.658 16.7461 31.2101 17.032C30.8742 17.3535 30.9173 17.6663 31.2101 17.901C31.5011 18.1311 31.8194 18.3238 32.1577 18.4744V18.4744Z" fill="black"/>
<path d="M31.8475 19.5693C31.7486 19.7664 31.6142 19.9431 31.4512 20.0906C31.2059 20.2897 30.9043 20.4053 30.5898 20.4208C30.1156 20.4678 29.6414 20.3311 29.2633 20.0385C29.0897 19.9361 28.9352 19.8037 28.8068 19.6475C28.7206 19.5528 28.6147 19.4787 28.4967 19.4303C28.4967 19.4303 29.1427 23.0015 30.7104 23.575C32.2782 24.1485 32.571 22.9146 32.6141 22.5844C32.6666 21.5955 32.4203 20.6138 31.9078 19.7691C31.9078 19.5085 31.8905 19.6823 31.8475 19.5693Z" fill="#F06351"/>
<path d="M30.3831 20.5598C29.98 20.5014 29.5928 20.3611 29.2449 20.1476C28.897 19.934 28.5956 19.6516 28.3588 19.3173C28.3376 19.2934 28.3259 19.2625 28.3259 19.2304C28.3259 19.1983 28.3376 19.1674 28.3588 19.1435C28.3701 19.1319 28.3835 19.1228 28.3983 19.1165C28.413 19.1102 28.4289 19.107 28.445 19.107C28.461 19.107 28.4769 19.1102 28.4917 19.1165C28.5065 19.1228 28.5199 19.1319 28.5311 19.1435C28.7443 19.4452 29.0147 19.7011 29.3267 19.8965C29.6387 20.0919 29.9861 20.2229 30.3486 20.2818C30.6355 20.2601 30.9131 20.1699 31.1587 20.0189C31.4043 19.8678 31.6108 19.6601 31.7613 19.4129L31.8819 19.2478L31.968 19.4389C31.968 19.4389 32.2954 20.0993 32.8294 20.1341C33.3635 20.1688 33.7425 19.7691 34.2335 19.0132C34.2518 18.9855 34.2802 18.9663 34.3125 18.9598C34.3448 18.9533 34.3783 18.96 34.4058 18.9784C34.4332 18.9969 34.4522 19.0255 34.4587 19.0581C34.4651 19.0907 34.4585 19.1245 34.4402 19.1522C33.866 20.0037 33.3233 20.4121 32.8122 20.3774C32.6147 20.351 32.4255 20.2803 32.2585 20.1705C32.0916 20.0608 31.9511 19.9147 31.8474 19.7431C31.6789 19.9805 31.46 20.177 31.2067 20.3183C30.9534 20.4596 30.672 20.5421 30.3831 20.5598Z" fill="black"/>
<path d="M32.0714 32.2555C33.8554 32.2555 35.3016 30.7966 35.3016 28.997C35.3016 27.1974 33.8554 25.7386 32.0714 25.7386C30.2875 25.7386 28.8412 27.1974 28.8412 28.997C28.8412 30.7966 30.2875 32.2555 32.0714 32.2555Z" fill="#FDC305"/>
<path d="M36.3525 26.3468L33.6564 27.4851L34.6469 22.5931L28.1866 31.0737L30.8827 29.9355L29.8921 34.8361L36.3525 26.3468ZM29.9869 29.6748L33.5702 24.9739L32.8725 28.4496L34.5953 27.7371L30.9861 32.4466L31.6838 28.971L29.9869 29.6748Z" fill="#111111"/>
<path d="M28.7809 28.3975C29.3137 28.3975 29.7456 27.9618 29.7456 27.4243C29.7456 26.8868 29.3137 26.4511 28.7809 26.4511C28.2481 26.4511 27.8161 26.8868 27.8161 27.4243C27.8161 27.9618 28.2481 28.3975 28.7809 28.3975Z" fill="#111111"/>
<path d="M34.3974 31.9253C34.7732 31.9253 35.0779 31.618 35.0779 31.2388C35.0779 30.8597 34.7732 30.5524 34.3974 30.5524C34.0216 30.5524 33.7169 30.8597 33.7169 31.2388C33.7169 31.618 34.0216 31.9253 34.3974 31.9253Z" fill="#111111"/>
<path d="M35.2244 30.0397C35.3909 30.0397 35.5259 29.9036 35.5259 29.7356C35.5259 29.5676 35.3909 29.4315 35.2244 29.4315C35.0579 29.4315 34.9229 29.5676 34.9229 29.7356C34.9229 29.9036 35.0579 30.0397 35.2244 30.0397Z" fill="#111111"/>
<path d="M40.3585 17.3622C38.8035 18.7762 37.339 20.2883 35.9739 21.8893C34.614 23.4788 33.0794 24.9072 31.3997 26.147C31.2102 25.6865 29.9956 24.8262 29.9956 24.8262C29.9956 24.8262 27.2907 22.9581 25.5161 21.4896C24.5568 20.6837 23.6531 19.8127 22.8112 18.8828L21.0884 18.7873C23.5754 22.4516 27.2188 25.1589 31.4255 26.4685C32.1664 26.3468 34.251 24.8436 35.8102 23.6184C37.6548 22.036 39.3823 20.3197 40.9788 18.4831C41.4079 17.9687 41.7406 17.3798 41.9608 16.7453C40.9788 17.0755 40.3585 17.3622 40.3585 17.3622Z" fill="#F06351"/>
<path d="M23.173 23.3056C23.173 23.3056 19.891 22.0544 18.685 21.7155C18.1187 21.4656 17.4934 21.3844 16.8828 21.4814C16.2723 21.5784 15.702 21.8496 15.2393 22.2629C14.7672 22.6798 14.3898 23.1945 14.1326 23.7717C13.8754 24.349 13.7446 24.9754 13.749 25.6083C13.9311 26.0121 14.0697 26.4345 14.1625 26.8682C14.2056 27.2853 13.1288 27.2418 12.4396 27.2418C11.7505 27.2418 11.6471 25.9906 12.1898 24.5221C12.6132 23.393 13.138 22.3052 13.7576 21.2724C9.06283 23.7401 0.836182 29.4402 0.836182 29.4402C3.18934 29.297 5.55047 29.3668 7.89128 29.6487C12.4138 30.1093 12.1984 33.7066 12.1984 33.7066C13.7891 33.2642 15.4102 32.9418 17.0483 32.7421C18.8745 32.6204 19.0037 34.5842 19.0037 34.5842L19.4603 37.9382C20.1535 37.1816 20.918 36.4948 21.7431 35.8875C22.8065 35.0289 24.1605 34.6235 25.5161 34.758V34.758L23.173 23.3056Z" fill="#F06351"/>
<path d="M74.6261 35.4705C73.7387 34.1441 73.3144 32.5574 73.4202 30.9608V24.4439C73.3082 22.8355 73.7261 21.2349 74.6089 19.8908C75.4071 18.8539 76.7709 18.3383 78.7005 18.3441C80.63 18.3499 81.9364 18.8046 82.6198 19.7083C83.453 20.8282 83.8596 22.2128 83.7654 23.6097V25.139H80.1993V23.4794C80.1945 23.0427 80.157 22.607 80.0873 22.176C80.0442 21.864 79.9021 21.5744 79.6824 21.3506C79.5468 21.2332 79.3893 21.1444 79.2192 21.0892C79.0491 21.0339 78.8698 21.0135 78.6918 21.0291C78.4362 20.9906 78.175 21.0325 77.9438 21.1491C77.7126 21.2657 77.5226 21.4513 77.3998 21.6807C77.1733 22.291 77.0736 22.9416 77.1069 23.5924V31.8644C77.0676 32.5195 77.1827 33.1746 77.4428 33.7761C77.5671 33.9931 77.7515 34.1687 77.9734 34.2814C78.1953 34.3941 78.445 34.4389 78.6918 34.4104C78.9344 34.445 79.1815 34.4014 79.3981 34.286C79.6146 34.1705 79.7895 33.989 79.8978 33.7674C80.1061 33.156 80.1968 32.5101 80.1648 31.8644V30.1266H83.7309V31.6298C83.8359 33.0474 83.4625 34.4591 82.6714 35.6355C81.9134 36.5914 80.6041 37.0606 78.7435 37.0606C76.8829 37.0606 75.4272 36.5392 74.6261 35.4705Z" fill="#111111"/>
<path d="M88.6242 18.5961H92.7072L96.1527 36.8434H92.7589L92.1473 32.8116H89.2875L88.5984 36.8173H85.1528L88.6242 18.5961ZM91.7683 30.5176L90.6829 23.184L89.6062 30.5176H91.7683Z" fill="#111111"/>
<path d="M98.7977 21.3419H96.0068V18.5961H105.241V21.3419H102.484V36.8173H98.7891L98.7977 21.3419Z" fill="#111111"/>
<path d="M112.486 18.5961H119.489V20.4903H115.01V26.5119H118.645V28.3106H115.01V34.9926H119.532V36.8173H112.486V18.5961Z" fill="#444444"/>
<path d="M121.565 18.5961H123.288L128.457 30.7001V18.5961H130.558V36.8434H128.948L123.779 24.4005V36.8173H121.643L121.565 18.5961Z" fill="#444444"/>
<path d="M133.341 18.5961H140.336V20.4903H135.856V26.5119H139.526V28.3106H135.891V34.9926H140.387V36.8173H133.341V18.5961Z" fill="#444444"/>
<path d="M142.412 18.5961H146.047C147.48 18.4798 148.906 18.8835 150.07 19.7344C150.931 20.4903 151.353 21.7242 151.353 23.4359C151.353 25.7531 150.609 27.1694 149.122 27.685L151.706 36.8173H149.26L146.891 28.2671H144.936V36.8173H142.412V18.5961ZM145.858 26.4163C146.687 26.4973 147.517 26.2617 148.183 25.756C148.454 25.4328 148.656 25.0572 148.778 24.6522C148.899 24.2473 148.937 23.8215 148.89 23.4012C148.907 22.8117 148.822 22.2236 148.64 21.6634C148.566 21.4568 148.451 21.2673 148.303 21.1061C148.155 20.9449 147.977 20.8153 147.778 20.7249C147.219 20.4935 146.616 20.3896 146.013 20.4208H144.901V26.4511L145.858 26.4163Z" fill="#444444"/>
<path d="M154.748 35.4705C153.924 34.0686 153.543 32.4474 153.654 30.8218V24.7393C153.624 23.5656 153.769 22.394 154.084 21.2637C154.333 20.4139 154.862 19.6752 155.583 19.1696C156.454 18.6402 157.462 18.386 158.477 18.4397C159.134 18.3767 159.797 18.4591 160.419 18.6812C161.041 18.9034 161.607 19.2598 162.078 19.7257C162.904 20.8935 163.295 22.3185 163.181 23.7488V24.4265H160.812V23.8617C160.828 23.1862 160.776 22.5108 160.657 21.8458C160.578 21.4197 160.345 21.0385 160.002 20.7771C159.555 20.5109 159.039 20.3867 158.52 20.4208C157.958 20.3723 157.399 20.5468 156.961 20.9074C156.604 21.2493 156.371 21.7021 156.298 22.1934C156.189 22.9092 156.14 23.6329 156.152 24.357V31.1259C156.083 32.1544 156.257 33.1847 156.66 34.1323C156.894 34.4237 157.19 34.6574 157.527 34.8154C157.864 34.9734 158.233 35.0517 158.604 35.0441C158.976 35.0366 159.34 34.9435 159.671 34.7719C160.001 34.6003 160.288 34.3548 160.51 34.0541C160.925 33.0519 161.105 31.9665 161.036 30.8826V29.5966H158.744V27.7979H163.31V36.8173H161.751L161.501 34.7232C161.303 35.4189 160.879 36.0268 160.295 36.448C159.712 36.8692 159.004 37.079 158.288 37.0432C157.614 37.1031 156.936 36.9904 156.318 36.7154C155.699 36.4405 155.159 36.0122 154.748 35.4705Z" fill="#444444"/>
<path d="M168.548 30.3873L164.645 18.5961H166.988L169.753 27.3895L172.475 18.5961H174.844L170.968 30.3873V36.8173H168.556L168.548 30.3873Z" fill="#444444"/>
</svg>
